<svg width="400" height="404" viewBox="0 0 400 404" fill="none" xmlns="http://www.w3.org/2000/svg">
<g clip-path="url(#clip0_5_3)">
<path fill-rule="evenodd" clip-rule="evenodd" d="M71.9243 63.0915C65.6151 30.2839 90.8517 0 123.659 0C152.681 0 176.656 23.9748 176.656 52.9968V118.612C184.227 118.612 191.798 117.35 199.369 117.35C206.94 117.35 213.249 117.35 220.82 118.612V52.9968C220.82 23.9748 244.795 0 273.817 0C306.625 0 331.861 30.2839 326.814 63.0915L312.934 140.063C362.145 161.514 400 199.369 400 246.057V275.079C400 314.196 374.763 347.003 338.17 368.454C301.577 391.167 253.628 403.785 199.369 403.785C145.11 403.785 97.1609 391.167 60.5678 368.454C25.2366 347.003 0 314.196 0 275.079V246.057C0 199.369 36.5931 161.514 85.8044 140.063L71.9243 63.0915ZM294.006 150.158L310.41 59.306C314.196 36.5931 297.792 15.142 273.817 15.142C253.628 15.142 237.224 31.5457 237.224 51.735V135.016C232.177 133.754 225.868 133.754 220.82 133.754C213.249 133.754 206.94 132.492 199.369 132.492C191.798 132.492 184.227 132.492 176.656 133.754C171.609 133.754 165.3 135.016 160.252 135.016V52.9968C160.252 32.8076 143.849 16.4038 123.659 16.4038C100.946 16.4038 83.2808 37.8549 88.3281 60.5678L104.732 151.42C51.735 171.609 16.4038 206.94 16.4038 247.319V276.341C16.4038 338.17 98.4227 388.644 199.369 388.644C300.315 388.644 382.334 338.17 382.334 276.341V247.319C383.596 205.678 348.265 170.347 294.006 150.158Z" fill="#633001"/>
<path d="M383.596 275.079C383.596 336.908 301.577 387.382 200.631 387.382C99.6845 387.382 17.6656 336.908 17.6656 275.079V246.057H384.858V275.079H383.596Z" fill="#FEDC90"/>
<path fill-rule="evenodd" clip-rule="evenodd" d="M88.3281 60.5678C83.2808 37.8549 100.946 16.4038 123.659 16.4038C143.849 16.4038 160.252 32.8076 160.252 52.9969V136.278C172.871 135.016 185.489 133.754 199.369 133.754C211.987 133.754 224.606 135.016 237.224 136.278V52.9969C237.224 32.8076 253.628 16.4038 273.817 16.4038C296.53 16.4038 314.196 37.8549 310.41 60.5678L294.006 151.42C347.003 171.609 383.596 206.94 383.596 247.319C383.596 309.148 301.577 359.621 200.631 359.621C99.6845 359.621 17.6656 309.148 17.6656 247.319C17.6656 206.94 52.9968 171.609 105.994 151.42L88.3281 60.5678Z" fill="#D1884F"/>
<path d="M148.896 238.486C148.896 254.89 140.063 268.77 128.707 268.77C117.35 268.77 108.517 254.89 108.517 238.486C108.517 222.082 117.35 208.202 128.707 208.202C140.063 208.202 148.896 222.082 148.896 238.486Z" fill="#633001"/>
<path d="M288.959 238.486C288.959 254.89 280.126 268.77 268.77 268.77C257.413 268.77 248.58 254.89 248.58 238.486C248.58 222.082 257.413 208.202 268.77 208.202C280.126 208.202 288.959 222.082 288.959 238.486Z" fill="#633001"/>
</g>
<defs>
<clipPath id="clip0_5_3">
<rect width="400" height="403.785" fill="white"/>
</clipPath>
</defs>
</svg>
